<svg width="66" height="66" xmlns="http://www.w3.org/2000/svg"><g fill="#FEFFFF" fill-rule="evenodd"><circle opacity=".1" cx="33" cy="33" r="33"/><path d="M25.44 31.14C26.161 24.8 31.718 20 38.335 20c4.05 0 6.826 1.886 6.826 5.79 0 3.905-3.331 5.791-8.192 5.791-3.588 0-5.286-.658-8.874-.658-.89-.005-1.779.068-2.655.217zm2.752 2.485c-4.86 0-8.192 1.886-8.192 5.79 0 3.905 2.776 5.791 6.827 5.791 6.617 0 12.173-4.8 12.894-11.14-.876.15-1.764.222-2.654.217-3.588 0-5.287-.658-8.875-.658z"/></g></svg>