<svg width="114" height="29" xmlns="http://www.w3.org/2000/svg"><g fill="none"><path d="M43.79 21.767c-.248.397-.447.737-.668 1.062-.708 1.04-1.392 2.098-2.152 3.097-.41.537-.928 1.003-1.447 1.441-1.8 1.52-3.935.73-4.98-.593-.279-.351-.507-.742-.743-1.092-.515.47-1.01.971-1.557 1.407-.879.701-1.86 1.156-3.02 1.094-1.3-.07-2.287-.677-2.987-1.775-.689-1.08-.96-2.299-1.094-3.553-.157-1.473-.112-2.947.041-4.419.027-.253.041-.51.035-.764-.012-.474-.2-.731-.66-.818-.632-.118-1.272-.193-1.893-.284-.344.906-.648 1.796-1.016 2.657a28.25 28.25 0 0 1-3.614 6.194 7.817 7.817 0 0 1-1.044 1.1c-1.308 1.146-2.833 1.28-4.302.35-.523-.331-.975-.777-1.412-1.131-.535.612-1.05 1.307-1.67 1.888-1.635 1.534-3.524 1.752-5.5.804-2.296-1.102-3.58-3.013-3.984-5.54-.287-1.8-.084-3.543.731-5.18.695-1.399 1.686-2.519 3.248-2.886 1.185-.278 2.389-.217 3.56.265-.076-.714-.168-1.415-.22-2.12-.221-3.004-.169-5.987.75-8.893.228-.72.521-1.411.992-2.011.95-1.212 2.457-1.446 3.71-.55 1.049.75 1.62 1.844 1.996 3.049.433 1.391.502 2.835.48 4.28-.074 4.93-.991 9.69-2.853 14.253a.553.553 0 0 0 .019.423c.2.354.413.707.67 1.019.292.352.494.355.893.139 1.43-.777 2.481-1.913 3.295-3.336.98-1.712 1.87-3.455 2.462-5.345.064-.207.056-.334-.13-.501-1.103-1-1.665-2.253-1.494-3.76.158-1.385 1.37-2.064 2.637-1.509 1.18.517 1.792 1.513 2.09 2.732.172.703.155.709.876.816.908.134 1.825.225 2.724.406 1.47.295 2.132 1.1 2.13 2.62-.002.953-.124 1.904-.174 2.855-.06 1.176-.103 2.354.172 3.512.065.28.168.549.305.8.311.568.846.76 1.425.484a3.08 3.08 0 0 0 .907-.641c.52-.553.993-1.15 1.47-1.743.07-.088.084-.247.077-.371-.14-2.437.03-4.857.408-7.262.175-1.11.523-1.298 1.547-.877 1.071.44 1.505 1.077 1.472 2.254-.042 1.463-.133 2.926-.167 4.39-.023.997-.04 2.003.238 2.974.1.344.25.693.454.984.476.68 1.279.762 1.871.188.33-.318.632-.683.875-1.072 1.29-2.072 2.557-4.157 3.827-6.242a.796.796 0 0 0 .107-.403c-.025-2.6.082-5.192.416-7.77.247-1.916.563-3.822 1.318-5.61a7.33 7.33 0 0 1 .993-1.708c.833-1.043 2.003-1.13 3.044-.295.87.699 1.26 1.65 1.338 2.749.123 1.71-.23 3.355-.691 4.98-.9 3.166-2.222 6.155-3.713 9.074-.11.223-.165.47-.158.72.053 1.59.177 3.17.751 4.672.17.443.352.89.6 1.29.254.407.557.802.91 1.122.667.608 1.404.63 2.12.08.34-.262.64-.572.891-.92.645-.897.99-1.921 1.084-3.024.012-.143-.086-.323-.184-.443-.278-.34-.616-.634-.87-.991-.836-1.183-1.464-2.467-1.69-3.924a2.772 2.772 0 0 1-.032-.397c-.01-1.09.662-1.619 1.678-1.243.447.165.89.451 1.23.79 1.226 1.222 1.977 2.718 2.292 4.434.042.228.033.45.357.49.493.06.71.006.869-.332.117-.248.175-.529.31-.764.264-.458.569-.89.849-1.339.286-.458.57-.918.839-1.387.049-.085.028-.216.027-.325-.032-2.589.084-5.17.415-7.738.24-1.85.544-3.69 1.256-5.422a7.855 7.855 0 0 1 1.058-1.86C61.632.5 62.823.42 63.853 1.254c.867.702 1.257 1.654 1.334 2.751.12 1.71-.232 3.356-.694 4.98-.904 3.176-2.225 6.178-3.734 9.1-.069.133-.151.286-.147.428.057 1.677.168 3.348.762 4.939.276.74.6 1.454 1.131 2.047.16.182.34.345.535.488.598.429 1.233.467 1.833.036a4.43 4.43 0 0 0 .95-.904c.696-.918 1.056-1.982 1.16-3.132.011-.124-.028-.306-.113-.379-1.008-.863-1.629-1.993-2.12-3.199-.232-.568-.35-1.184-.513-1.78-.029-.105-.028-.22-.03-.33-.029-1.188.71-1.706 1.81-1.274.61.24 1.085.665 1.493 1.165 1 1.228 1.69 2.609 1.92 4.2.028.193.11.265.274.303.624.145.867-.011 1.05-.642a2.1 2.1 0 0 1 .248-.5c.507-.829 1.026-1.651 1.526-2.484a.93.93 0 0 0 .124-.466c-.022-2.41.069-4.815.351-7.21.241-2.038.544-4.071 1.324-5.982a7.812 7.812 0 0 1 1.099-1.91c.79-.992 1.98-1.063 2.972-.27.882.704 1.284 1.66 1.363 2.77.123 1.71-.23 3.356-.692 4.981-.899 3.166-2.221 6.154-3.712 9.073a1.535 1.535 0 0 0-.161.721c.058 1.6.194 3.189.76 4.705.27.718.59 1.41 1.097 1.992.15.175.32.334.502.475.62.475 1.278.516 1.915.063.344-.244.669-.547.923-.885.694-.918 1.059-1.98 1.161-3.13.012-.126-.022-.31-.106-.382-1.025-.88-1.64-2.034-2.153-3.257-.304-.728-.54-1.479-.514-2.284.02-.63.315-1.067.807-1.142.253-.04.527-.024.778.031.54.119.976.446 1.353.84 1.203 1.26 1.982 2.751 2.262 4.487.05.315.183.419.454.424.327.007.667.062.98-.009.291-.065.577-.235.817-.422.11-.085.172-.34.138-.49-1.122-4.926-.86-9.823.281-14.701.273-1.169.685-2.29 1.317-3.317.127-.207.268-.405.42-.594 1.15-1.431 2.801-1.57 4.178-.352.924.819 1.419 1.9 1.767 3.06.531 1.77.65 3.592.624 5.43-.028 1.948-.203 3.874-.88 5.722-.663 1.815-1.745 3.368-2.926 4.861-.198.25-.41.492-.595.753-.056.08-.09.238-.052.317a72.97 72.97 0 0 0 1.281 2.469c.141.257.35.482.553.698.321.344.718.51 1.199.52 1.3.03 2.452-.347 3.462-1.188.215-.18.263-.338.214-.615-.597-3.371.289-6.29 2.709-8.678 1.174-1.16 2.625-1.728 4.29-1.67 2.557.09 4.451 2.383 4.076 4.954-.327 2.234-1.57 3.882-3.285 5.215-.912.708-1.937 1.198-3.11 1.529.132.102.223.185.324.249 1.177.734 2.476.896 3.82.813 2.365-.149 4.117-1.402 5.555-3.206.24-.302.456-.624.69-.932.272-.36.507-.395.812-.064.538.582.88 1.268.905 2.083.013.412-.118.784-.369 1.113-2.383 3.12-5.521 4.527-9.395 4.25-1.74-.124-3.344-.65-4.725-1.766-.29-.234-.549-.506-.756-.699-.921.51-1.793 1.064-2.723 1.488-1.15.525-2.374.78-3.645.538-1.393-.266-2.477-1.066-3.3-2.19-.564-.77-1-1.633-1.49-2.457-.062-.103-.102-.22-.162-.352-1.055.315-2.114.303-3.146.092-.2.712-.369 1.41-.592 2.087-.347 1.06-.89 2.007-1.762 2.714-1.44 1.169-3.006 1.206-4.617.422-1.273-.619-2.19-1.642-2.919-2.844-.633-1.044-1.127-2.152-1.35-3.368-.008-.042-.032-.08-.077-.19-.792 1.337-1.946 1.556-3.253 1.16-.205.732-.38 1.426-.597 2.107a5.984 5.984 0 0 1-1.263 2.234c-1.253 1.38-2.942 1.78-4.668 1.105-1.17-.457-2.073-1.262-2.828-2.254-.922-1.212-1.403-2.308-1.98-4.513-.72 1.476-1.878 1.745-3.222 1.325-.255.848-.463 1.66-.751 2.443a6.397 6.397 0 0 1-.743 1.4c-1.318 1.904-3.445 2.436-5.503 1.4-1.138-.574-1.997-1.46-2.703-2.513-.736-1.101-1.044-1.86-1.67-4.111zm-38.17 4.29c1.004.025 1.897-.262 2.511-1.078.52-.692.932-1.466 1.379-2.213.043-.072.012-.209-.016-.306a624.64 624.64 0 0 0-1.173-3.977c-.04-.131-.093-.279-.187-.372-1.062-1.057-2.918-1.214-4.037.005-.374.408-.72.878-.948 1.381-.786 1.736-.663 3.494.034 5.228a1.917 1.917 0 0 0 1.4 1.199c.338.078.69.091 1.036.133zm5.295-7.286l.125-.006c.246-1.055.516-2.106.732-3.167.587-2.886.974-5.795.885-8.751-.027-.922-.113-1.84-.461-2.707-.2-.494-.437-.532-.792-.137-.408.455-.616 1.015-.778 1.595-.4 1.432-.48 2.906-.505 4.382-.037 2.145.12 4.28.392 6.406.102.8.266 1.59.402 2.385zm78.33-1.563c.501-.556.855-1.15 1.149-1.777 1.177-2.51 1.586-5.168 1.428-7.923-.053-.918-.179-1.832-.555-2.686-.12-.273-.253-.602-.586-.607-.334-.005-.454.34-.531.603-.245.825-.5 1.652-.658 2.497-.401 2.14-.52 4.31-.59 6.483-.038 1.132.083 2.247.343 3.41zm11.24 4.319l.127.042c.163-.063.327-.121.486-.19 1.475-.646 2.713-1.578 3.422-3.081.196-.415.303-.908.313-1.368.017-.785-.627-1.244-1.381-1.062-.573.139-1.028.474-1.42.906-.752.83-1.194 1.823-1.38 2.923-.103.601-.114 1.219-.166 1.83zM48.077 3.812c-.955.786-2.154 7.098-1.911 8.227.9-1.397 2.136-6.674 1.911-8.227zm14.6.052c-.85.714-2.161 7.02-1.921 8.261 1.095-2.704 1.76-5.42 1.921-8.261zm12.615 8.155c1.086-2.614 1.78-5.324 1.992-8.15l-.168-.04c-1.135 2.601-1.654 5.353-1.824 8.19z" fill="#4360DF"/><path d="M32 9.344c0-1.267.754-2.224 1.84-2.336.985-.102 1.941.815 2.119 2.034.091.632.034 1.243-.209 1.82-.35.831-1.062 1.255-1.843 1.11-1.128-.21-1.908-1.285-1.907-2.628z" fill="#2F7460"/></g></svg>