<svg width="24" height="24" xmlns="http://www.w3.org/2000/svg"><path d="M19.27 8.877c0-.15-.003-.3-.01-.449A7.08 7.08 0 0 0 21 6.629a6.983 6.983 0 0 1-2.003.547 3.488 3.488 0 0 0 1.534-1.922 7.006 7.006 0 0 1-2.215.844A3.49 3.49 0 0 0 15.77 5a3.482 3.482 0 0 0-3.398 4.266 9.915 9.915 0 0 1-7.189-3.63 3.468 3.468 0 0 0 1.08 4.638 3.472 3.472 0 0 1-1.58-.434v.044A3.48 3.48 0 0 0 7.48 13.29a3.51 3.51 0 0 1-1.575.06 3.49 3.49 0 0 0 3.258 2.412 7.016 7.016 0 0 1-4.332 1.487c-.281 0-.559-.015-.832-.048a9.903 9.903 0 0 0 5.346 1.56c6.416 0 9.924-5.293 9.924-9.884z" fill="#FFF" fill-rule="evenodd"/></svg>