<svg width="24" height="24" xmlns="http://www.w3.org/2000/svg"><path d="M2.5 12.228c0 4.077 2.722 7.535 6.497 8.756.475.085.648-.2.648-.445 0-.219-.008-.8-.012-1.57-2.643.558-3.2-1.236-3.2-1.236-.433-1.067-1.056-1.35-1.056-1.35-.862-.572.066-.561.066-.561.953.065 1.455.951 1.455.951.847 1.41 2.224 1.003 2.765.766.086-.596.332-1.002.603-1.233-2.11-.233-4.327-1.025-4.327-4.56 0-1.008.37-1.832.978-2.477-.098-.233-.424-1.172.093-2.442 0 0 .797-.248 2.612.946A9.351 9.351 0 0 1 12 7.463c.807.003 1.62.105 2.379.31 1.813-1.194 2.61-.946 2.61-.946.518 1.27.192 2.209.094 2.442.61.645.977 1.47.977 2.476 0 3.545-2.222 4.326-4.338 4.554.341.285.645.848.645 1.709 0 1.233-.012 2.228-.012 2.531 0 .247.172.534.653.444 3.773-1.223 6.492-4.68 6.492-8.755C21.5 7.131 17.246 3 12 3s-9.5 4.131-9.5 9.228z" fill="#FFF" fill-rule="evenodd"/></svg>