<svg width="52" height="52" xmlns="http://www.w3.org/2000/svg"><g fill="none" fill-rule="evenodd"><path d="M-117.5 26c0 79.253 64.247 143.5 143.5 143.5S169.5 105.253 169.5 26c0-79.252-64.247-143.5-143.5-143.5S-117.5-53.252-117.5 26z" stroke="#435CE7" stroke-width="5" opacity=".14"/><path d="M-87.5 26c0 62.684 50.816 113.5 113.5 113.5S139.5 88.684 139.5 26 88.684-87.5 26-87.5-87.5-36.684-87.5 26z" stroke="#435CE7" stroke-width="5" opacity=".14"/><path d="M-57.5 26c0 46.116 37.384 83.5 83.5 83.5s83.5-37.384 83.5-83.5S72.116-57.5 26-57.5-57.5-20.116-57.5 26z" stroke="#435CE7" stroke-width="5" opacity=".14"/><path d="M-25 26c0 28.167 22.833 51 51 51s51-22.833 51-51c0-28.166-22.834-51-51-51S-25-2.166-25 26zm-5 0c0-30.928 25.072-56 56-56S82-4.928 82 26 56.928 82 26 82s-56-25.072-56-56z" fill="#D9DDF0" fill-rule="nonzero"/><path d="M0 26C0 11.64 11.64 0 26 0s26 11.64 26 26-11.64 26-26 26S0 40.36 0 26zm30.427-.028c4.2-.24 6.745-2.443 6.564-5.737-.184-3.351-3.569-5.416-6.956-5.223-5.52.315-9.578 5.268-10.035 10.929a13.16 13.16 0 0 1 2.282-.33c3.101-.176 5.044.537 8.145.36zm-8.872 12.017C26.75 37.703 30.57 33.2 31 28.054a12.86 12.86 0 0 1-2.148.299c-2.918.16-4.748-.488-7.666-.327-3.953.217-6.348 2.22-6.177 5.215.173 3.046 3.358 4.923 6.546 4.748z" fill="#4360DF"/></g></svg>