<svg width="372" height="258" xmlns="http://www.w3.org/2000/svg"><g fill="#4360DF" fill-rule="evenodd"><ellipse cx="197.448" cy="45.638" rx="7.564" ry="7.546"/><ellipse opacity=".4" cx="169.712" cy="43.123" rx="15.129" ry="15.092"/><ellipse opacity=".4" cx="263.847" cy="69.954" rx="15.129" ry="15.092"/><ellipse opacity=".2" cx="255.442" cy="28.031" rx="23.534" ry="23.477"/><ellipse opacity=".2" cx="208.035" cy="14.568" rx="14.421" ry="14.386"/><ellipse opacity=".4" cx="299.147" cy="142.062" rx="15.129" ry="15.092"/><ellipse opacity=".1" cx="356.129" cy="83.092" rx="15.129" ry="15.092"/><ellipse opacity=".2" cx="293.14" cy="199.658" rx="19.937" ry="19.889"/><ellipse opacity=".4" cx="72.94" cy="121.914" rx="13.13" ry="13.098"/><ellipse opacity=".2" cx="62.129" cy="200.754" rx="15.129" ry="15.092"/><ellipse opacity=".1" cx="15.129" cy="118.092" rx="15.129" ry="15.092"/><ellipse cx="168.031" cy="68.277" rx="5.043" ry="5.031"/><ellipse cx="238.632" cy="59.892" rx="5.043" ry="5.031"/><ellipse opacity=".4" cx="199.969" cy="59.892" rx="3.362" ry="3.354"/><ellipse opacity=".4" cx="231.067" cy="74.146" rx="5.883" ry="5.869"/><ellipse cx="183.16" cy="76.662" rx="6.724" ry="6.708"/><ellipse opacity=".2" cx="168.031" cy="85.046" rx="8.405" ry="8.385"/><ellipse cx="154.583" cy="101.815" rx="10.086" ry="10.062"/><ellipse cx="136.092" cy="137.031" rx="10.086" ry="10.062"/><ellipse cx="126.006" cy="177.277" rx="10.086" ry="10.062"/><ellipse cx="115.08" cy="157.992" rx="7.564" ry="7.546"/><ellipse cx="133.571" cy="114.392" rx="7.564" ry="7.546"/><ellipse cx="141.135" cy="197.4" rx="10.086" ry="10.062"/><path d="M97.43 180.63c5.57 0 10.085-4.504 10.085-10.06 0-5.558-4.515-10.062-10.086-10.062-5.57 0-10.085 4.504-10.085 10.061s4.515 10.062 10.085 10.062zm-45.344-15.507c5.57 0 10.086-4.505 10.086-10.061 0-5.557-4.516-10.062-10.086-10.062S42 149.505 42 155.062c0 5.556 4.516 10.061 10.086 10.061zm235.294-41.508c5.57 0 10.086-4.504 10.086-10.061s-4.515-10.062-10.086-10.062c-5.57 0-10.086 4.505-10.086 10.062 0 5.557 4.516 10.061 10.086 10.061z" opacity=".4"/><path d="M101.632 150.446c4.178 0 7.564-3.378 7.564-7.546s-3.386-7.546-7.564-7.546-7.565 3.378-7.565 7.546 3.387 7.546 7.565 7.546z"/><ellipse cx="238.632" cy="155.477" rx="10.086" ry="10.062"/><ellipse opacity=".4" cx="233.589" cy="202.431" rx="10.086" ry="10.062"/><ellipse opacity=".4" cx="159.626" cy="215.846" rx="10.086" ry="10.062"/><ellipse cx="172.233" cy="245.192" rx="12.607" ry="12.577"/><ellipse cx="99.951" cy="213.331" rx="12.607" ry="12.577"/><ellipse cx="293.264" cy="82.531" rx="12.607" ry="12.577"/><ellipse opacity=".4" cx="296.626" cy="48.992" rx="12.607" ry="12.577"/><ellipse opacity=".3" cx="327.623" cy="56.002" rx="7.605" ry="7.587"/><ellipse cx="250.399" cy="118.585" rx="5.043" ry="5.031"/><ellipse cx="243.675" cy="128.646" rx="3.362" ry="3.354"/><ellipse cx="230.227" cy="170.569" rx="3.362" ry="3.354"/><ellipse cx="210.055" cy="190.692" rx="3.362" ry="3.354"/><ellipse cx="203.331" cy="183.985" rx="3.362" ry="3.354"/><ellipse cx="258.804" cy="152.123" rx="3.362" ry="3.354"/><ellipse cx="201.65" cy="199.077" rx="3.362" ry="3.354"/><ellipse cx="258.804" cy="128.646" rx="3.362" ry="3.354"/><ellipse cx="273.933" cy="128.646" rx="3.362" ry="3.354"/><ellipse cx="253.761" cy="105.169" rx="6.724" ry="6.708"/><ellipse opacity=".4" cx="252.08" cy="140.385" rx="6.724" ry="6.708"/><ellipse opacity=".4" cx="225.184" cy="185.662" rx="6.724" ry="6.708"/><ellipse opacity=".4" cx="241.994" cy="175.6" rx="6.724" ry="6.708"/><ellipse opacity=".4" cx="119.282" cy="73.308" rx="8.405" ry="8.385"/><ellipse cx="126.006" cy="38.092" rx="8.405" ry="8.385"/><ellipse cx="151.221" cy="12.938" rx="8.405" ry="8.385"/><ellipse cx="265.528" cy="116.908" rx="6.724" ry="6.708"/><ellipse opacity=".4" cx="268.89" cy="140.385" rx="6.724" ry="6.708"/><ellipse opacity=".4" cx="253.761" cy="189.015" rx="6.724" ry="6.708"/><ellipse cx="258.804" cy="177.277" rx="3.362" ry="3.354"/><ellipse cx="270.571" cy="95.108" rx="6.724" ry="6.708"/><ellipse cx="146.178" cy="235.969" rx="6.724" ry="6.708"/><ellipse cx="137.773" cy="61.569" rx="6.724" ry="6.708"/><ellipse cx="122.644" cy="98.462" rx="6.724" ry="6.708"/><ellipse cx="112.558" cy="113.554" rx="6.724" ry="6.708"/><ellipse cx="257.123" cy="163.862" rx="6.724" ry="6.708"/><ellipse cx="273.933" cy="157.154" rx="6.724" ry="6.708"/><ellipse opacity=".3" cx="149.54" cy="80.015" rx="6.724" ry="6.708"/><ellipse cx="248.718" cy="91.754" rx="5.043" ry="5.031"/><ellipse cx="241.153" cy="82.531" rx="4.202" ry="4.192"/><ellipse cx="220.141" cy="152.123" rx="5.043" ry="5.031"/><ellipse cx="218.46" cy="165.538" rx="5.043" ry="5.031"/><ellipse cx="213.417" cy="177.277" rx="5.043" ry="5.031"/><ellipse cx="159.626" cy="197.4" rx="3.362" ry="3.354"/><ellipse cx="176.436" cy="210.815" rx="3.362" ry="3.354"/><ellipse cx="184.84" cy="199.077" rx="6.724" ry="6.708"/><ellipse cx="233.589" cy="137.031" rx="6.724" ry="6.708"/><ellipse cx="204.172" cy="136.192" rx="4.202" ry="4.192"/><ellipse cx="192.405" cy="134.515" rx="4.202" ry="4.192"/><ellipse cx="180.638" cy="132.838" rx="4.202" ry="4.192"/><ellipse cx="167.19" cy="134.515" rx="5.883" ry="5.869"/><ellipse cx="153.742" cy="139.546" rx="4.202" ry="4.192"/><ellipse cx="138.613" cy="94.269" rx="4.202" ry="4.192"/><ellipse cx="197.448" cy="72.469" rx="4.202" ry="4.192"/><ellipse cx="208.374" cy="71.631" rx="3.362" ry="3.354"/><ellipse cx="218.46" cy="73.308" rx="3.362" ry="3.354"/><ellipse cx="172.233" cy="199.915" rx="4.202" ry="4.192"/><ellipse cx="195.767" cy="191.531" rx="4.202" ry="4.192"/><ellipse cx="130.209" cy="154.638" rx="4.202" ry="4.192"/><ellipse cx="218.46" cy="54.862" rx="10.086" ry="10.062"/><ellipse cx="187.362" cy="62.408" rx="5.883" ry="5.869"/><ellipse cx="187.362" cy="62.408" rx="5.883" ry="5.869"/><ellipse cx="150.38" cy="121.1" rx="5.883" ry="5.869"/><ellipse cx="192.405" cy="211.654" rx="5.883" ry="5.869"/><ellipse cx="200.81" cy="233.454" rx="10.926" ry="10.9"/><ellipse cx="214.258" cy="201.592" rx="5.883" ry="5.869"/><ellipse cx="110.037" cy="89.238" rx="5.883" ry="5.869"/><ellipse cx="180.638" cy="221.715" rx="5.883" ry="5.869"/><ellipse cx="207.534" cy="215.008" rx="5.883" ry="5.869"/><ellipse cx="121.804" cy="196.562" rx="5.883" ry="5.869"/><ellipse cx="128.528" cy="223.392" rx="5.883" ry="5.869"/><ellipse cx="224.344" cy="221.715" rx="5.883" ry="5.869"/><ellipse cx="140.294" cy="216.685" rx="5.883" ry="5.869"/><ellipse cx="125.166" cy="209.977" rx="4.202" ry="4.192"/><ellipse opacity=".4" cx="106.675" cy="188.177" rx="5.883" ry="5.869"/><ellipse cx="120.123" cy="127.808" rx="5.883" ry="5.869"/><ellipse cx="118.442" cy="142.9" rx="4.202" ry="4.192"/><ellipse cx="106.675" cy="129.485" rx="4.202" ry="4.192"/><ellipse opacity=".4" cx="153.742" cy="65.762" rx="4.202" ry="4.192"/><ellipse cx="133.571" cy="82.531" rx="4.202" ry="4.192"/><ellipse cx="217.62" cy="139.546" rx="5.883" ry="5.869"/></g></svg>