<svg width="101" height="25" xmlns="http://www.w3.org/2000/svg"><path d="M19.28 10.7h-8.412c-.217 0-.393.163-.393.363v3.799c0 .2.176.363.393.363h3.281v4.719s-.737.232-2.774.232c-2.403 0-5.76-.811-5.76-7.629 0-6.82 3.496-7.716 6.778-7.716 2.84 0 4.064.461 4.843.684.245.07.471-.156.471-.356l.939-3.67a.33.33 0 0 0-.15-.283C18.179.997 16.25 0 11.376 0 5.76 0 0 2.206 0 12.813 0 23.42 6.595 25 12.152 25c4.601 0 7.393-1.816 7.393-1.816.115-.059.127-.207.127-.275V11.063c0-.2-.176-.363-.393-.363m43.327-9.442c0-.202-.174-.365-.391-.365h-4.736c-.216 0-.392.163-.392.365l.001 8.453h-7.383V1.258c0-.202-.174-.365-.39-.365h-4.736c-.216 0-.392.163-.392.365v22.888c0 .202.176.366.392.366h4.736c.216 0 .39-.164.39-.366v-9.79h7.383l-.013 9.79c0 .202.176.366.392.366h4.748c.217 0 .39-.164.39-.366V1.258M28.652 3.74c0-1.574-1.367-2.847-3.054-2.847-1.685 0-3.053 1.273-3.053 2.848 0 1.573 1.368 2.85 3.053 2.85 1.687 0 3.054-1.277 3.054-2.85m-.584 15.225V8.4c0-.2-.175-.364-.392-.364h-4.721a.433.433 0 0 0-.41.407v15.136c0 .445.3.578.688.578h4.254c.467 0 .581-.212.581-.585v-4.606m52.537-10.93h-4.7c-.215 0-.39.164-.39.365v11.223s-1.195.807-2.89.807c-1.694 0-2.144-.71-2.144-2.242V8.4c0-.201-.175-.365-.39-.365h-4.77c-.216 0-.392.164-.392.365v10.53c0 4.551 2.746 5.665 6.525 5.665 3.1 0 5.6-1.582 5.6-1.582s.119.834.173.933a.418.418 0 0 0 .346.198l3.034-.013c.215 0 .392-.164.392-.365l-.002-15.365c0-.201-.175-.365-.392-.365M92.03 20.804c-1.631-.046-2.737-.729-2.737-.729v-7.248s1.09-.618 2.43-.728c1.692-.14 3.322.332 3.322 4.06 0 3.933-.735 4.709-3.016 4.645zm1.853-12.896c-2.67 0-4.485 1.1-4.485 1.1v-7.75c0-.202-.175-.365-.39-.365h-4.75c-.217 0-.392.163-.392.365v22.888c0 .202.175.366.392.366h3.295c.149 0 .261-.07.344-.194.082-.123.2-1.055.2-1.055s1.942 1.7 5.619 1.7c4.316 0 6.792-2.023 6.792-9.077 0-7.056-3.954-7.978-6.625-7.978zm-52.265.244h-3.552l-.006-4.334c0-.165-.091-.247-.297-.247h-4.84c-.19 0-.29.077-.29.244v4.48s-2.426.54-2.59.584a.369.369 0 0 0-.284.349v2.814c0 .203.175.366.392.366h2.482v6.772c0 5.03 3.82 5.524 6.398 5.524 1.178 0 2.587-.35 2.82-.429a.338.338 0 0 0 .222-.328l.004-3.097c0-.202-.185-.365-.393-.365-.207 0-.737.078-1.282.078-1.745 0-2.336-.75-2.336-1.72v-6.435h3.552c.217 0 .392-.163.392-.366V8.517c0-.202-.175-.365-.392-.365" fill="#4360DF" fill-rule="evenodd"/></svg>