<svg width="117" height="27" xmlns="http://www.w3.org/2000/svg"><path d="M12.537 20.599l3.624 1.442c-1.504 2.884-3.994 4.327-7.47 4.327-2.663 0-4.777-.845-6.343-2.534C.783 22.146 0 19.896 0 17.085c0-2.76.783-4.986 2.348-6.675 1.566-1.689 3.63-2.533 6.195-2.533 2.662 0 4.702.863 6.12 2.589 1.418 1.725 2.126 3.87 2.126 6.434v1.184H4.29c.075 1.48.457 2.706 1.147 3.68.69.973 1.763 1.46 3.218 1.46 1.775 0 3.07-.875 3.883-2.625zm-4.031-9.653c-1.208 0-2.17.401-2.885 1.202-.715.802-1.134 1.856-1.257 3.162h8.21c-.05-1.356-.444-2.422-1.184-3.199-.74-.776-1.7-1.165-2.884-1.165zm10.677 14.94V8.359h4.03v2.662c1.16-2.095 2.898-3.143 5.215-3.143 1.233 0 2.311.277 3.236.832a5.273 5.273 0 0 1 2.09 2.311c.566-.862 1.343-1.602 2.33-2.218.985-.617 2.082-.925 3.29-.925 1.677 0 3.07.512 4.18 1.535 1.109 1.023 1.664 2.471 1.664 4.345v12.13h-4.216V14.793c0-1.184-.278-2.06-.832-2.626-.555-.567-1.252-.85-2.09-.85-1.035 0-1.923.468-2.663 1.405-.74.936-1.109 2.23-1.109 3.883v9.282h-4.216V14.793c0-1.184-.283-2.06-.85-2.626-.567-.567-1.27-.85-2.108-.85-1.036 0-1.917.468-2.644 1.405-.728.936-1.091 2.23-1.091 3.883v9.282h-4.216zM58.63 7.878c2.293 0 4.185.844 5.677 2.533 1.491 1.689 2.237 3.926 2.237 6.712 0 2.786-.746 5.024-2.237 6.712-1.492 1.69-3.384 2.534-5.677 2.534-2.564 0-4.462-1.024-5.695-3.07v2.589h-4.03V0h4.215v10.614c1.282-1.825 3.119-2.737 5.51-2.737zm-5.547 8.395v1.7c0 1.677.475 2.94 1.424 3.791s2.028 1.276 3.236 1.276c1.356 0 2.447-.554 3.272-1.664.826-1.11 1.24-2.527 1.24-4.253 0-1.725-.414-3.143-1.24-4.253-.825-1.109-1.916-1.664-3.272-1.664-1.208 0-2.287.426-3.236 1.276-.95.85-1.424 2.114-1.424 3.79zm26.727 9.615c-.247-.444-.37-1.196-.37-2.256-1.282 1.824-3.143 2.737-5.584 2.737-1.775 0-3.199-.45-4.271-1.35-1.073-.9-1.61-2.114-1.61-3.643 0-1.134.303-2.108.907-2.921.604-.814 1.454-1.449 2.552-1.905a15.316 15.316 0 0 1 3.605-.98c1.307-.197 2.75-.296 4.327-.296v-1.11c0-.96-.271-1.725-.814-2.292-.542-.567-1.343-.85-2.403-.85s-1.874.258-2.441.776c-.567.518-.863 1.171-.888 1.96l-4.068-.592c.173-1.652.968-2.946 2.386-3.883 1.417-.937 3.137-1.405 5.159-1.405 2.17 0 3.907.549 5.214 1.646 1.307 1.097 1.96 2.668 1.96 4.715v9.245c0 .789.136 1.59.407 2.404H79.81zm-4.808-2.626c1.184 0 2.207-.351 3.07-1.054.863-.702 1.294-1.633 1.294-2.792v-1.442c-4.832 0-7.248 1.048-7.248 3.143 0 .69.265 1.22.795 1.59.53.37 1.226.555 2.09.555zM98.365 8.284l-.85 3.883c-.518-.444-1.196-.666-2.035-.666-1.134 0-2.126.48-2.977 1.442-.85.962-1.276 2.33-1.276 4.105v8.839h-4.215V8.357h3.957v2.848c.961-2.219 2.687-3.328 5.177-3.328.838 0 1.578.136 2.219.407zm13.34 17.603l-5.954-8.506-1.776 1.627v6.879H99.76V0h4.215v14.645l6.805-6.287h4.918l-6.915 6.435 7.877 11.094h-4.955z" fill="#FFF" fill-rule="evenodd"/></svg>